C:\Users\r0593348\3dpredictsim\Results\Batchsim_tmt_linear\Pog_s1_tmt_aCst_d05_k800_ig24_act_GRF.mot
nRows=20
nColumns=19

name C:\Users\r0593348\3dpredictsim\Results\Batchsim_tmt_linear\Pog_s1_tmt_aCst_d05_k800_ig24_act_GRF.mot
datacolumns 19
datarows 20
range 0.0000000000 0.2345030538
endheader
time 	ground_force_vx	ground_force_vy	ground_force_vz	ground_force_px	ground_force_py	ground_force_pz	1_ground_force_vx	1_ground_force_vy	1_ground_force_vz	1_ground_force_px	1_ground_force_py	1_ground_force_pz	ground_torque_x	ground_torque_y	ground_torque_z	1_ground_torque_x	1_ground_torque_y	1_ground_torque_z
        0.0000000000	      -41.4806923961	       32.3673334872	       10.4540265403	        0.1903361776	        0.0000000000	        0.0529841728	      104.9455078249	      437.8320428469	       -1.5250127311	       -0.3597617613	        0.0000000000	       -0.0323240592	        0.0000000000	        0.0000000000	        0.0000000000	        0.0000000000	        0.0000000000	        0.0000000000	
        0.0123422660	     -111.7273661755	      115.0690216210	       42.0557297141	        0.1985010338	        0.0000000000	        0.0510210837	       75.1500471846	      341.5274463373	       -6.7546352996	       -0.3523597658	        0.0000000000	       -0.0293615432	        0.0000000000	        0.0000000000	        0.0000000000	        0.0000000000	        0.0000000000	        0.0000000000	
        0.0246845320	      -53.4004354274	      294.0417855254	       16.6217479998	        0.2040217509	        0.0000000000	        0.0491164980	       44.8759261811	      239.6582156594	      -13.0547492415	       -0.3403812346	        0.0000000000	       -0.0240711673	        0.0000000000	        0.0000000000	        0.0000000000	        0.0000000000	        0.0000000000	        0.0000000000	
        0.0370267980	      -53.3326144322	      497.4272581941	       -5.4841563180	        0.2072039818	        0.0000000000	        0.0489236651	       30.0717693742	      188.3302217757	      -12.9201852004	       -0.3332629404	        0.0000000000	       -0.0203420237	        0.0000000000	        0.0000000000	        0.0000000000	        0.0000000000	        0.0000000000	        0.0000000000	
        0.0493690640	      -99.3427476152	      712.9861924135	      -15.9364901718	        0.2161541876	        0.0000000000	        0.0508196822	       28.3584302944	      147.7378758209	      -12.6512063670	       -0.3328295184	        0.0000000000	       -0.0204273037	        0.0000000000	        0.0000000000	        0.0000000000	        0.0000000000	        0.0000000000	        0.0000000000	
        0.0617113300	     -133.4350057275	      857.4762839137	      -20.6735216964	        0.2244422849	        0.0000000000	        0.0526468492	       18.7124618932	       96.1553643307	      -14.5090278282	       -0.3325747395	        0.0000000000	       -0.0208191108	        0.0000000000	        0.0000000000	        0.0000000000	        0.0000000000	        0.0000000000	        0.0000000000	
        0.0740535959	     -141.4174586376	      889.4014104773	      -21.1191533570	        0.2298046047	        0.0000000000	        0.0536861099	        1.7207791605	       36.7547605791	       -8.6378428231	       -0.3332975745	        0.0000000000	       -0.0210552335	        0.0000000000	        0.0000000000	        0.0000000000	        0.0000000000	        0.0000000000	        0.0000000000	
        0.0863958619	     -129.9537875034	      865.2395194081	      -20.8378302183	        0.2337844012	        0.0000000000	        0.0542598296	        0.4660511845	       -0.4579945496	        0.0178784325	        0.0000000000	        0.0000000000	        0.0000000000	        0.0000000000	        0.0000000000	        0.0000000000	        0.0000000000	        0.0000000000	        0.0000000000	
        0.0987381279	     -114.1903437442	      818.5815112834	      -20.6291313755	        0.2377252386	        0.0000000000	        0.0544977907	        0.3513129225	       -0.2703902230	       -0.0197313827	        0.0000000000	        0.0000000000	        0.0000000000	        0.0000000000	        0.0000000000	        0.0000000000	        0.0000000000	        0.0000000000	        0.0000000000	
        0.1110803939	     -100.9421550167	      772.5529689861	      -19.4668929941	        0.2419706140	        0.0000000000	        0.0544628133	       -3.7794605725	        2.5073686996	        0.2888778691	        0.0000000000	        0.0000000000	        0.0000000000	        0.0000000000	        0.0000000000	        0.0000000000	        0.0000000000	        0.0000000000	        0.0000000000	
        0.1234226599	      -90.6004525040	      739.7630297597	      -18.8641603997	        0.2470752592	        0.0000000000	        0.0541781851	       -3.3258179499	        1.9765263688	        0.2683234980	        0.0000000000	        0.0000000000	        0.0000000000	        0.0000000000	        0.0000000000	        0.0000000000	        0.0000000000	        0.0000000000	        0.0000000000	
        0.1357649259	      -81.3797042191	      715.2940716961	      -19.0485374511	        0.2528913024	        0.0000000000	        0.0536439958	       -2.5622989466	        1.3998323140	        0.2182497253	        0.0000000000	        0.0000000000	        0.0000000000	        0.0000000000	        0.0000000000	        0.0000000000	        0.0000000000	        0.0000000000	        0.0000000000	
        0.1481071919	      -71.8207844203	      690.3004121543	      -19.4804946973	        0.2585589392	        0.0000000000	        0.0531395604	       -2.0002961613	        1.0360139407	        0.1636256671	        0.0000000000	        0.0000000000	        0.0000000000	        0.0000000000	        0.0000000000	        0.0000000000	        0.0000000000	        0.0000000000	        0.0000000000	
        0.1604494579	      -62.6408285907	      665.8540624377	      -20.1285024436	        0.2639154861	        0.0000000000	        0.0527364001	       -1.4242481450	        0.7061694019	        0.1146647608	        0.0000000000	        0.0000000000	        0.0000000000	        0.0000000000	        0.0000000000	        0.0000000000	        0.0000000000	        0.0000000000	        0.0000000000	
        0.1727917239	      -54.2601699193	      644.6733113128	      -20.4165305074	        0.2690956952	        0.0000000000	        0.0524117586	       -1.0382286674	        0.4973366432	        0.0824199672	        0.0000000000	        0.0000000000	        0.0000000000	        0.0000000000	        0.0000000000	        0.0000000000	        0.0000000000	        0.0000000000	        0.0000000000	
        0.1851339899	      -46.6506306419	      627.4459509436	      -20.7352738535	        0.2744541670	        0.0000000000	        0.0520956666	       -0.8160144494	        0.3800082860	        0.0638549028	        0.0000000000	        0.0000000000	        0.0000000000	        0.0000000000	        0.0000000000	        0.0000000000	        0.0000000000	        0.0000000000	        0.0000000000	
        0.1974762558	      -40.0757865071	      614.5005142831	      -21.0373836897	        0.2804590949	        0.0000000000	        0.0516958257	       -0.6972082849	        0.3170618773	        0.0537163931	        0.0000000000	        0.0000000000	        0.0000000000	        0.0000000000	        0.0000000000	        0.0000000000	        0.0000000000	        0.0000000000	        0.0000000000	
        0.2098185218	      -35.1357515970	      605.5068545008	      -21.0308992784	        0.2871646406	        0.0000000000	        0.0511682342	       -0.6424309731	        0.2860648861	        0.0487249058	        0.0000000000	        0.0000000000	        0.0000000000	        0.0000000000	        0.0000000000	        0.0000000000	        0.0000000000	        0.0000000000	        0.0000000000	
        0.2221607878	      -31.3199784836	      599.7063136445	      -20.4981844330	        0.2941908555	        0.0000000000	        0.0505437553	       -0.6371474646	        0.2781829058	        0.0474168681	        0.0000000000	        0.0000000000	        0.0000000000	        0.0000000000	        0.0000000000	        0.0000000000	        0.0000000000	        0.0000000000	        0.0000000000	
        0.2345030538	      -27.9996280367	      596.1807888134	      -19.4087041617	        0.3013641498	        0.0000000000	        0.0498454004	       -0.6790329705	        0.2908341876	        0.0490201146	        0.0000000000	        0.0000000000	        0.0000000000	        0.0000000000	        0.0000000000	        0.0000000000	        0.0000000000	        0.0000000000	        0.0000000000	
